# 3ds Max Wavefront OBJ Exporter v0.99 - (c)2007 guruware
# File Created: 29.03.2026 03:58:52

mtllib Pedal_Der.mtl

#
# object Group_008
#

v  -0.1012 0.2905 1.4144
v  -0.0336 0.2222 -2.3788
v  -0.1012 0.2045 -2.3784
v  -0.0336 0.3083 1.4140
v  0.2653 -0.0094 -2.3736
v  0.2476 0.1442 1.4177
v  0.2653 0.0767 1.4192
v  0.2476 0.0581 -2.3751
v  0.0362 0.3079 1.4140
v  0.1035 0.2035 -2.3784
v  0.0362 0.2219 -2.3788
v  0.1035 0.2896 1.4144
v  -0.0222 0.1320 -2.3768
v  -0.0667 0.2063 1.4163
v  -0.0667 0.1203 -2.3765
v  -0.0222 0.2181 1.4160
v  0.0683 0.1196 -2.3765
v  0.0239 0.2178 1.4160
v  0.0239 0.1318 -2.3768
v  0.0683 0.2057 1.4163
v  -0.1618 0.2559 1.4152
v  -0.1618 0.1699 -2.3776
v  -0.2650 0.0792 1.4192
v  -0.2653 -0.0767 -2.3720
v  -0.2653 0.0094 1.4207
v  -0.2650 -0.0069 -2.3736
v  -0.2114 0.1207 -2.3765
v  -0.2114 0.2068 1.4163
v  -0.1638 -0.2544 -2.3680
v  -0.2129 -0.1187 1.4237
v  -0.2129 -0.2048 -2.3691
v  -0.1638 -0.1683 1.4248
v  0.1634 0.1098 1.4185
v  0.1751 -0.0208 -2.3733
v  0.1751 0.0652 1.4195
v  0.1634 0.0237 -2.3743
v  0.1748 -0.0669 -2.3723
v  0.1748 0.0192 1.4205
v  0.2130 0.2048 1.4163
v  0.2130 0.1187 -2.3765
v  0.1405 0.0637 -2.3752
v  0.1081 0.1825 1.4168
v  0.1081 0.0964 -2.3760
v  0.1405 0.1498 1.4176
v  -0.0362 -0.3079 -2.3668
v  -0.1035 -0.2035 1.4256
v  -0.1035 -0.2896 -2.3672
v  -0.0362 -0.2219 1.4260
v  0.2114 -0.2068 -2.3691
v  0.2466 -0.0605 1.4223
v  0.2114 -0.1207 1.4237
v  0.2466 -0.1465 -2.3704
v  0.1618 -0.2559 -2.3680
v  0.1012 -0.2045 1.4256
v  0.1012 -0.2905 -2.3672
v  0.1618 -0.1699 1.4248
v  0.0336 -0.3083 -2.3668
v  -0.0239 -0.2178 -2.3688
v  -0.0683 -0.2057 -2.3691
v  -0.2476 -0.1442 -2.3705
v  -0.1081 -0.1825 -2.3696
v  -0.1405 -0.1498 -2.3704
v  -0.1634 -0.1098 -2.3713
v  -0.1751 -0.0652 -2.3723
v  -0.1748 -0.0192 -2.3733
v  -0.2466 0.0605 -2.3751
v  -0.1627 0.0253 -2.3743
v  -0.1395 0.0650 -2.3752
v  -0.1068 0.0974 -2.3760
v  0.0222 -0.2181 -2.3688
v  0.0667 -0.2063 -2.3691
v  0.1068 -0.1835 -2.3696
v  0.1395 -0.1511 -2.3703
v  0.1627 -0.1113 -2.3712
v  0.2650 -0.0792 -2.3720
v  0.1638 0.1683 -2.3776
v  0.1627 -0.0253 1.4215
v  0.1395 -0.0650 1.4224
v  0.1068 -0.0974 1.4232
v  0.0336 -0.2222 1.4260
v  0.0667 -0.1203 1.4237
v  0.2650 0.0069 1.4208
v  0.0222 -0.1320 1.4240
v  -0.0239 -0.1318 1.4240
v  -0.0683 -0.1196 1.4237
v  -0.1081 -0.0964 1.4231
v  -0.1405 -0.0637 1.4224
v  -0.1634 -0.0237 1.4215
v  -0.1751 0.0208 1.4205
v  -0.1748 0.0669 1.4194
v  -0.1627 0.1113 1.4184
v  -0.1395 0.1511 1.4175
v  -0.1068 0.1835 1.4168
v  0.1638 0.2544 1.4152
v  -0.2476 -0.0581 1.4223
v  -0.2466 0.1465 1.4176
# 96 vertices

vn -0.3782 0.9255 -0.0210
vn -0.1258 0.9918 -0.0225
vn 0.9921 0.1257 -0.0029
vn 0.9257 0.3781 -0.0086
vn 0.1353 0.9906 -0.0225
vn 0.3871 0.9218 -0.0209
vn 0.1258 -0.9918 0.0225
vn 0.3782 -0.9255 0.0210
vn -0.3871 -0.9218 0.0209
vn -0.1353 -0.9906 0.0225
vn -0.6049 0.7961 -0.0181
vn -0.9908 0.1353 -0.0031
vn -0.9921 -0.1257 0.0029
vn -0.7904 0.6124 -0.0139
vn -0.6126 -0.7902 0.0179
vn -0.7963 -0.6048 0.0137
vn -0.9257 -0.3781 0.0086
vn 0.7963 0.6048 -0.0137
vn 0.7904 -0.6124 0.0139
vn 0.9220 -0.3870 0.0088
vn 0.6049 -0.7961 0.0181
vn 0.0000 -0.0227 -0.9997
vn -0.9220 0.3870 -0.0088
vn 0.9908 -0.1353 0.0031
vn 0.6126 0.7902 -0.0179
vn -0.0000 0.0227 0.9997
# 26 vertex normals

vt 0.0000 0.0000 0.0000
# 1 texture coords

o Group_008
g Group_008
usemtl wire_087224198
s off
f 1/1/1 2/1/2 3/1/1 
f 2/1/2 1/1/1 4/1/2 
f 5/1/3 6/1/4 7/1/3 
f 6/1/4 5/1/3 8/1/4 
f 9/1/5 10/1/6 11/1/5 
f 10/1/6 9/1/5 12/1/6 
f 13/1/7 14/1/8 15/1/8 
f 14/1/8 13/1/7 16/1/7 
f 17/1/9 18/1/10 19/1/10 
f 18/1/10 17/1/9 20/1/9 
f 21/1/11 3/1/1 22/1/11 
f 3/1/1 21/1/11 1/1/1 
f 23/1/12 24/1/13 25/1/13 
f 24/1/13 23/1/12 26/1/12 
f 21/1/11 27/1/14 28/1/14 
f 27/1/14 21/1/11 22/1/11 
f 4/1/2 11/1/5 2/1/2 
f 11/1/5 4/1/2 9/1/5 
f 29/1/15 30/1/16 31/1/16 
f 30/1/16 29/1/15 32/1/15 
f 33/1/17 34/1/13 35/1/13 
f 34/1/13 33/1/17 36/1/17 
f 35/1/13 37/1/12 38/1/12 
f 37/1/12 35/1/13 34/1/13 
f 8/1/4 39/1/18 6/1/4 
f 39/1/18 8/1/4 40/1/18 
f 41/1/16 42/1/15 43/1/15 
f 42/1/15 41/1/16 44/1/16 
f 43/1/15 20/1/9 17/1/9 
f 20/1/9 43/1/15 42/1/15 
f 45/1/10 46/1/9 47/1/9 
f 46/1/9 45/1/10 48/1/10 
f 49/1/19 50/1/20 51/1/19 
f 50/1/20 49/1/19 52/1/20 
f 53/1/21 54/1/8 55/1/8 
f 54/1/8 53/1/21 56/1/21 
f 47/1/22 57/1/22 45/1/22 
f 57/1/22 47/1/22 29/1/22 
f 57/1/22 29/1/22 55/1/22 
f 55/1/22 29/1/22 31/1/22 
f 55/1/22 31/1/22 53/1/22 
f 53/1/22 31/1/22 58/1/22 
f 58/1/22 31/1/22 59/1/22 
f 59/1/22 31/1/22 60/1/22 
f 59/1/22 60/1/22 61/1/22 
f 61/1/22 60/1/22 62/1/22 
f 62/1/22 60/1/22 24/1/22 
f 62/1/22 24/1/22 63/1/22 
f 63/1/22 24/1/22 64/1/22 
f 64/1/22 24/1/22 26/1/22 
f 64/1/22 26/1/22 65/1/22 
f 65/1/22 26/1/22 66/1/22 
f 65/1/22 66/1/22 67/1/22 
f 67/1/22 66/1/22 68/1/22 
f 68/1/22 66/1/22 27/1/22 
f 68/1/22 27/1/22 69/1/22 
f 69/1/22 27/1/22 15/1/22 
f 15/1/22 27/1/22 22/1/22 
f 15/1/22 22/1/22 13/1/22 
f 13/1/22 22/1/22 19/1/22 
f 53/1/22 70/1/22 49/1/22 
f 70/1/22 53/1/22 58/1/22 
f 49/1/22 70/1/22 71/1/22 
f 49/1/22 71/1/22 72/1/22 
f 49/1/22 72/1/22 52/1/22 
f 52/1/22 72/1/22 73/1/22 
f 52/1/22 73/1/22 74/1/22 
f 52/1/22 74/1/22 75/1/22 
f 75/1/22 74/1/22 37/1/22 
f 75/1/22 37/1/22 34/1/22 
f 75/1/22 34/1/22 5/1/22 
f 5/1/22 34/1/22 36/1/22 
f 5/1/22 36/1/22 8/1/22 
f 8/1/22 36/1/22 41/1/22 
f 8/1/22 41/1/22 43/1/22 
f 8/1/22 43/1/22 40/1/22 
f 40/1/22 43/1/22 17/1/22 
f 40/1/22 17/1/22 19/1/22 
f 40/1/22 19/1/22 22/1/22 
f 40/1/22 22/1/22 3/1/22 
f 40/1/22 3/1/22 76/1/22 
f 76/1/22 3/1/22 2/1/22 
f 76/1/22 2/1/22 10/1/22 
f 10/1/22 2/1/22 11/1/22 
f 77/1/23 73/1/14 78/1/14 
f 73/1/14 77/1/23 74/1/23 
f 78/1/14 72/1/11 79/1/11 
f 72/1/11 78/1/14 73/1/14 
f 57/1/7 48/1/10 45/1/10 
f 48/1/10 57/1/7 80/1/7 
f 81/1/1 72/1/11 71/1/1 
f 72/1/11 81/1/1 79/1/11 
f 38/1/12 74/1/23 77/1/23 
f 74/1/23 38/1/12 37/1/12 
f 55/1/8 80/1/7 57/1/7 
f 80/1/7 55/1/8 54/1/8 
f 52/1/20 82/1/24 50/1/20 
f 82/1/24 52/1/20 75/1/24 
f 75/1/24 7/1/3 82/1/24 
f 7/1/3 75/1/24 5/1/3 
f 47/1/9 32/1/15 29/1/15 
f 32/1/15 47/1/9 46/1/9 
f 19/1/10 16/1/7 13/1/7 
f 16/1/7 19/1/10 18/1/10 
f 83/1/2 71/1/1 70/1/2 
f 71/1/1 83/1/2 81/1/1 
f 84/1/5 70/1/2 58/1/5 
f 70/1/2 84/1/5 83/1/2 
f 85/1/6 58/1/5 59/1/6 
f 58/1/5 85/1/6 84/1/5 
f 86/1/25 59/1/6 61/1/25 
f 59/1/6 86/1/25 85/1/6 
f 87/1/18 61/1/25 62/1/18 
f 61/1/25 87/1/18 86/1/25 
f 62/1/18 88/1/4 87/1/18 
f 88/1/4 62/1/18 63/1/4 
f 63/1/4 89/1/3 88/1/4 
f 89/1/3 63/1/4 64/1/3 
f 64/1/3 90/1/24 89/1/3 
f 90/1/24 64/1/3 65/1/24 
f 65/1/24 91/1/20 90/1/24 
f 91/1/20 65/1/24 67/1/20 
f 67/1/20 92/1/19 91/1/20 
f 92/1/19 67/1/20 68/1/19 
f 68/1/19 93/1/21 92/1/19 
f 93/1/21 68/1/19 69/1/21 
f 15/1/8 93/1/21 69/1/21 
f 93/1/21 15/1/8 14/1/8 
f 44/1/16 36/1/17 33/1/17 
f 36/1/17 44/1/16 41/1/16 
f 53/1/21 51/1/19 56/1/21 
f 51/1/19 53/1/21 49/1/19 
f 56/1/26 83/1/26 84/1/26 
f 83/1/26 56/1/26 51/1/26 
f 83/1/26 51/1/26 81/1/26 
f 81/1/26 51/1/26 79/1/26 
f 79/1/26 51/1/26 50/1/26 
f 79/1/26 50/1/26 78/1/26 
f 78/1/26 50/1/26 77/1/26 
f 77/1/26 50/1/26 82/1/26 
f 77/1/26 82/1/26 38/1/26 
f 38/1/26 82/1/26 35/1/26 
f 35/1/26 82/1/26 7/1/26 
f 35/1/26 7/1/26 33/1/26 
f 33/1/26 7/1/26 6/1/26 
f 33/1/26 6/1/26 44/1/26 
f 44/1/26 6/1/26 42/1/26 
f 42/1/26 6/1/26 39/1/26 
f 42/1/26 39/1/26 20/1/26 
f 20/1/26 39/1/26 18/1/26 
f 18/1/26 39/1/26 21/1/26 
f 21/1/26 39/1/26 1/1/26 
f 1/1/26 39/1/26 94/1/26 
f 1/1/26 94/1/26 4/1/26 
f 4/1/26 94/1/26 12/1/26 
f 4/1/26 12/1/26 9/1/26 
f 80/1/26 46/1/26 48/1/26 
f 46/1/26 80/1/26 32/1/26 
f 32/1/26 80/1/26 54/1/26 
f 32/1/26 54/1/26 30/1/26 
f 30/1/26 54/1/26 56/1/26 
f 30/1/26 56/1/26 84/1/26 
f 30/1/26 84/1/26 85/1/26 
f 30/1/26 85/1/26 95/1/26 
f 95/1/26 85/1/26 86/1/26 
f 95/1/26 86/1/26 87/1/26 
f 95/1/26 87/1/26 25/1/26 
f 25/1/26 87/1/26 88/1/26 
f 25/1/26 88/1/26 89/1/26 
f 25/1/26 89/1/26 23/1/26 
f 23/1/26 89/1/26 90/1/26 
f 23/1/26 90/1/26 96/1/26 
f 96/1/26 90/1/26 91/1/26 
f 96/1/26 91/1/26 92/1/26 
f 96/1/26 92/1/26 28/1/26 
f 28/1/26 92/1/26 93/1/26 
f 28/1/26 93/1/26 14/1/26 
f 28/1/26 14/1/26 21/1/26 
f 21/1/26 14/1/26 16/1/26 
f 21/1/26 16/1/26 18/1/26 
f 12/1/6 76/1/25 10/1/6 
f 76/1/25 12/1/6 94/1/25 
f 28/1/14 66/1/23 96/1/23 
f 66/1/23 28/1/14 27/1/14 
f 25/1/13 60/1/17 95/1/17 
f 60/1/17 25/1/13 24/1/13 
f 95/1/17 31/1/16 30/1/16 
f 31/1/16 95/1/17 60/1/17 
f 96/1/23 26/1/12 23/1/12 
f 26/1/12 96/1/23 66/1/23 
f 94/1/25 40/1/18 76/1/25 
f 40/1/18 94/1/25 39/1/18 
# 192 faces

#
# object Group_007
#

v  -0.5560 -0.2932 1.3357
v  -0.6108 0.4786 1.1804
v  -0.7299 -0.2653 1.1802
v  -0.4369 0.4507 1.3359
v  0.5241 -0.4661 1.2680
v  0.7968 0.2532 1.0920
v  0.6432 0.2778 1.2682
v  0.6777 -0.4907 1.0918
v  -0.7390 0.4992 0.9845
v  -0.8581 -0.2447 0.9843
v  -0.8128 0.5111 0.7617
v  -0.9319 -0.2328 0.7615
v  -0.8271 0.5135 0.5272
v  -0.9462 -0.2305 0.5270
v  0.8265 -0.5143 0.5871
v  0.9250 0.2334 -1.3320
v  0.9456 0.2296 0.5873
v  0.8059 -0.5105 -1.3322
v  -0.8204 0.5129 -1.3383
v  -0.9395 -0.2310 -1.3385
v  0.4395 -0.4526 1.3247
v  0.7811 -0.5072 0.8815
v  0.8272 -0.5145 0.6511
v  0.9002 0.2368 0.8817
v  0.5587 0.2913 1.3249
v  0.9463 0.2294 0.6514
# 26 vertices

vn -0.6537 0.1045 0.7495
vn -0.7447 0.1191 0.6567
vn 0.6484 -0.1040 0.7542
vn 0.8190 -0.1313 0.5585
vn -0.8872 0.1419 0.4391
vn -0.9691 0.1551 0.1916
vn -0.9855 0.1578 0.0618
vn 0.9874 -0.1581 -0.0109
vn -0.9874 0.1581 -0.0036
vn -0.1581 -0.9874 -0.0003
vn 0.9339 -0.1496 0.3248
vn 0.5456 -0.0876 0.8334
vn 0.0107 -0.0020 0.9999
vn 0.0036 -0.0003 -1.0000
vn 0.9677 -0.1550 0.1986
vn 0.1581 0.9874 0.0003
# 16 vertex normals

vt 0.0000 0.0000 0.0000
# 1 texture coords

o Group_007
g Group_007
usemtl NEGRO
s off
f 97/2/27 98/2/28 99/2/28 
f 98/2/28 97/2/27 100/2/27 
f 101/2/29 102/2/30 103/2/29 
f 102/2/30 101/2/29 104/2/30 
f 105/2/31 99/2/28 98/2/28 
f 99/2/28 105/2/31 106/2/31 
f 107/2/32 106/2/31 105/2/31 
f 106/2/31 107/2/32 108/2/32 
f 109/2/33 108/2/32 107/2/32 
f 108/2/32 109/2/33 110/2/33 
f 111/2/34 112/2/34 113/2/34 
f 112/2/34 111/2/34 114/2/34 
f 115/2/35 110/2/35 109/2/35 
f 110/2/35 115/2/35 116/2/35 
f 114/2/36 110/2/36 116/2/36 
f 110/2/36 114/2/36 108/2/36 
f 108/2/36 114/2/36 106/2/36 
f 106/2/36 114/2/36 99/2/36 
f 99/2/36 114/2/36 97/2/36 
f 97/2/36 114/2/36 117/2/36 
f 117/2/36 114/2/36 101/2/36 
f 101/2/36 114/2/36 104/2/36 
f 104/2/36 114/2/36 118/2/36 
f 118/2/36 114/2/36 111/2/36 
f 118/2/36 111/2/36 119/2/36 
f 104/2/30 120/2/37 102/2/30 
f 120/2/37 104/2/30 118/2/37 
f 101/2/29 121/2/38 117/2/38 
f 121/2/38 101/2/29 103/2/29 
f 117/2/39 100/2/39 97/2/39 
f 100/2/39 117/2/39 121/2/39 
f 115/2/40 114/2/40 116/2/40 
f 114/2/40 115/2/40 112/2/40 
f 118/2/37 122/2/41 120/2/37 
f 122/2/41 118/2/37 119/2/41 
f 109/2/42 112/2/42 115/2/42 
f 112/2/42 109/2/42 107/2/42 
f 112/2/42 107/2/42 105/2/42 
f 112/2/42 105/2/42 98/2/42 
f 112/2/42 98/2/42 100/2/42 
f 112/2/42 100/2/42 121/2/42 
f 112/2/42 121/2/42 103/2/42 
f 112/2/42 103/2/42 102/2/42 
f 112/2/42 102/2/42 120/2/42 
f 112/2/42 120/2/42 113/2/42 
f 113/2/42 120/2/42 122/2/42 
f 119/2/34 113/2/34 122/2/34 
f 113/2/34 119/2/34 111/2/34 
# 48 faces

