# 3ds Max Wavefront OBJ Exporter v0.99 - (c)2007 guruware
# File Created: 29.03.2026 03:57:32

mtllib Pedal_Izq.mtl

#
# object Group_010
#

v  0.0639 -0.2820 -1.3599
v  0.0710 -0.2307 2.4342
v  0.1386 -0.2130 2.4325
v  -0.0036 -0.2998 -1.3582
v  -0.2279 0.0009 2.4359
v  -0.2848 -0.1357 -1.3557
v  -0.3026 -0.0682 -1.3565
v  -0.2102 -0.0666 2.4367
v  -0.0734 -0.2995 -1.3568
v  -0.0661 -0.2120 2.4365
v  0.0012 -0.2304 2.4356
v  -0.1407 -0.2811 -1.3558
v  0.0596 -0.1405 2.4328
v  0.0295 -0.1978 -1.3607
v  0.1041 -0.1288 2.4317
v  -0.0151 -0.2096 -1.3596
v  -0.0309 -0.1282 2.4343
v  -0.0611 -0.2093 -1.3587
v  0.0135 -0.1403 2.4337
v  -0.1055 -0.1972 -1.3581
v  0.1245 -0.2474 -1.3617
v  0.1992 -0.1784 2.4307
v  0.2276 -0.0707 -1.3669
v  0.3026 0.0682 2.4242
v  0.2279 -0.0009 -1.3682
v  0.3023 -0.0016 2.4255
v  0.2487 -0.1293 2.4288
v  0.1741 -0.1983 -1.3635
v  0.2010 0.2459 2.4230
v  0.1755 0.1272 -1.3695
v  0.2502 0.1963 2.4229
v  0.1264 0.1768 -1.3694
v  -0.2006 -0.1013 -1.3579
v  -0.1377 0.0123 2.4339
v  -0.2123 -0.0567 -1.3585
v  -0.1260 -0.0322 2.4345
v  -0.1375 0.0584 2.4330
v  -0.2121 -0.0107 -1.3594
v  -0.2502 -0.1963 -1.3552
v  -0.1755 -0.1272 2.4372
v  -0.1031 -0.0722 2.4347
v  -0.1453 -0.1740 -1.3577
v  -0.0707 -0.1049 2.4347
v  -0.1778 -0.1413 -1.3577
v  0.0734 0.2995 2.4245
v  0.0661 0.2120 -1.3689
v  0.1407 0.2811 2.4235
v  -0.0012 0.2304 -1.3679
v  -0.1741 0.1983 2.4312
v  -0.2839 0.0690 -1.3594
v  -0.2487 0.1293 -1.3612
v  -0.2093 0.1380 2.4330
v  -0.1245 0.2474 2.4293
v  -0.1386 0.2130 -1.3649
v  -0.0639 0.2820 2.4275
v  -0.1992 0.1784 -1.3631
v  0.0036 0.2998 2.4259
v  0.0611 0.2093 2.4264
v  0.1055 0.1972 2.4257
v  0.2848 0.1357 2.4233
v  0.1453 0.1740 2.4254
v  0.1778 0.1413 2.4253
v  0.2006 0.1013 2.4256
v  0.2123 0.0567 2.4262
v  0.2121 0.0107 2.4270
v  0.2839 -0.0690 2.4271
v  0.2000 -0.0338 2.4281
v  0.1768 -0.0735 2.4292
v  0.1441 -0.1060 2.4305
v  0.0151 0.2096 2.4273
v  -0.0295 0.1978 2.4284
v  -0.0695 0.1750 2.4296
v  -0.1022 0.1426 2.4308
v  -0.1254 0.1028 2.4320
v  -0.2276 0.0707 2.4346
v  -0.1264 -0.1768 2.4371
v  -0.2000 0.0338 -1.3604
v  -0.1768 0.0735 -1.3616
v  -0.1441 0.1060 -1.3628
v  -0.0710 0.2307 -1.3665
v  -0.1041 0.1288 -1.3640
v  -0.3023 0.0016 -1.3578
v  -0.0596 0.1405 -1.3651
v  -0.0135 0.1403 -1.3660
v  0.0309 0.1282 -1.3667
v  0.0707 0.1049 -1.3670
v  0.1031 0.0722 -1.3671
v  0.1260 0.0322 -1.3668
v  0.1377 -0.0123 -1.3662
v  0.1375 -0.0584 -1.3654
v  0.1254 -0.1028 -1.3643
v  0.1022 -0.1426 -1.3631
v  0.0695 -0.1750 -1.3619
v  -0.2010 -0.2459 -1.3553
v  0.2102 0.0666 -1.3691
v  0.2093 -0.1380 -1.3653
# 96 vertices

vn 0.3785 -0.9255 0.0094
vn 0.1261 -0.9919 0.0156
vn -0.9918 -0.1258 0.0218
vn -0.9254 -0.3782 0.0251
vn -0.1349 -0.9906 0.0207
vn -0.3867 -0.9219 0.0244
vn -0.1261 0.9919 -0.0156
vn -0.3785 0.9255 -0.0094
vn 0.3867 0.9219 -0.0244
vn 0.1349 0.9906 -0.0207
vn 0.6051 -0.7961 0.0026
vn 0.9907 -0.1352 -0.0170
vn 0.9918 0.1258 -0.0218
vn 0.7905 -0.6124 -0.0044
vn 0.6121 0.7903 -0.0264
vn 0.7959 0.6049 -0.0267
vn 0.9254 0.3782 -0.0251
vn -0.7959 -0.6049 0.0267
vn -0.7905 0.6124 0.0044
vn -0.9220 0.3870 0.0111
vn -0.6051 0.7961 -0.0026
vn 0.0197 0.0182 0.9996
vn 0.9220 -0.3870 -0.0111
vn -0.9907 0.1352 0.0170
vn -0.6121 -0.7903 0.0264
vn -0.0197 -0.0182 -0.9996
# 26 vertex normals

vt 0.0000 0.0000 0.0000
# 1 texture coords

o Group_010
g Group_010
usemtl wire_134006006
s off
f 3/1/1 2/1/2 1/1/1 
f 4/1/2 1/1/1 2/1/2 
f 7/1/3 6/1/4 5/1/3 
f 8/1/4 5/1/3 6/1/4 
f 11/1/5 10/1/6 9/1/5 
f 12/1/6 9/1/5 10/1/6 
f 15/1/8 14/1/8 13/1/7 
f 16/1/7 13/1/7 14/1/8 
f 19/1/10 18/1/10 17/1/9 
f 20/1/9 17/1/9 18/1/10 
f 22/1/11 3/1/1 21/1/11 
f 1/1/1 21/1/11 3/1/1 
f 25/1/13 24/1/13 23/1/12 
f 26/1/12 23/1/12 24/1/13 
f 28/1/14 27/1/14 21/1/11 
f 22/1/11 21/1/11 27/1/14 
f 2/1/2 11/1/5 4/1/2 
f 9/1/5 4/1/2 11/1/5 
f 31/1/16 30/1/16 29/1/15 
f 32/1/15 29/1/15 30/1/16 
f 35/1/13 34/1/13 33/1/17 
f 36/1/17 33/1/17 34/1/13 
f 38/1/12 37/1/12 35/1/13 
f 34/1/13 35/1/13 37/1/12 
f 6/1/4 39/1/18 8/1/4 
f 40/1/18 8/1/4 39/1/18 
f 43/1/15 42/1/15 41/1/16 
f 44/1/16 41/1/16 42/1/15 
f 17/1/9 20/1/9 43/1/15 
f 42/1/15 43/1/15 20/1/9 
f 47/1/9 46/1/9 45/1/10 
f 48/1/10 45/1/10 46/1/9 
f 51/1/19 50/1/20 49/1/19 
f 52/1/20 49/1/19 50/1/20 
f 55/1/8 54/1/8 53/1/21 
f 56/1/21 53/1/21 54/1/8 
f 45/1/22 57/1/22 47/1/22 
f 29/1/22 47/1/22 57/1/22 
f 55/1/22 29/1/22 57/1/22 
f 31/1/22 29/1/22 55/1/22 
f 53/1/22 31/1/22 55/1/22 
f 58/1/22 31/1/22 53/1/22 
f 59/1/22 31/1/22 58/1/22 
f 60/1/22 31/1/22 59/1/22 
f 61/1/22 60/1/22 59/1/22 
f 62/1/22 60/1/22 61/1/22 
f 24/1/22 60/1/22 62/1/22 
f 63/1/22 24/1/22 62/1/22 
f 64/1/22 24/1/22 63/1/22 
f 26/1/22 24/1/22 64/1/22 
f 65/1/22 26/1/22 64/1/22 
f 66/1/22 26/1/22 65/1/22 
f 67/1/22 66/1/22 65/1/22 
f 68/1/22 66/1/22 67/1/22 
f 27/1/22 66/1/22 68/1/22 
f 69/1/22 27/1/22 68/1/22 
f 15/1/22 27/1/22 69/1/22 
f 22/1/22 27/1/22 15/1/22 
f 13/1/22 22/1/22 15/1/22 
f 19/1/22 22/1/22 13/1/22 
f 49/1/22 70/1/22 53/1/22 
f 58/1/22 53/1/22 70/1/22 
f 71/1/22 70/1/22 49/1/22 
f 72/1/22 71/1/22 49/1/22 
f 52/1/22 72/1/22 49/1/22 
f 73/1/22 72/1/22 52/1/22 
f 74/1/22 73/1/22 52/1/22 
f 75/1/22 74/1/22 52/1/22 
f 37/1/22 74/1/22 75/1/22 
f 34/1/22 37/1/22 75/1/22 
f 5/1/22 34/1/22 75/1/22 
f 36/1/22 34/1/22 5/1/22 
f 8/1/22 36/1/22 5/1/22 
f 41/1/22 36/1/22 8/1/22 
f 43/1/22 41/1/22 8/1/22 
f 40/1/22 43/1/22 8/1/22 
f 17/1/22 43/1/22 40/1/22 
f 19/1/22 17/1/22 40/1/22 
f 22/1/22 19/1/22 40/1/22 
f 3/1/22 22/1/22 40/1/22 
f 76/1/22 3/1/22 40/1/22 
f 2/1/22 3/1/22 76/1/22 
f 10/1/22 2/1/22 76/1/22 
f 11/1/22 2/1/22 10/1/22 
f 78/1/14 73/1/14 77/1/23 
f 74/1/23 77/1/23 73/1/14 
f 79/1/11 72/1/11 78/1/14 
f 73/1/14 78/1/14 72/1/11 
f 45/1/10 48/1/10 57/1/7 
f 80/1/7 57/1/7 48/1/10 
f 71/1/1 72/1/11 81/1/1 
f 79/1/11 81/1/1 72/1/11 
f 77/1/23 74/1/23 38/1/12 
f 37/1/12 38/1/12 74/1/23 
f 57/1/7 80/1/7 55/1/8 
f 54/1/8 55/1/8 80/1/7 
f 50/1/20 82/1/24 52/1/20 
f 75/1/24 52/1/20 82/1/24 
f 82/1/24 7/1/3 75/1/24 
f 5/1/3 75/1/24 7/1/3 
f 29/1/15 32/1/15 47/1/9 
f 46/1/9 47/1/9 32/1/15 
f 13/1/7 16/1/7 19/1/10 
f 18/1/10 19/1/10 16/1/7 
f 70/1/2 71/1/1 83/1/2 
f 81/1/1 83/1/2 71/1/1 
f 58/1/5 70/1/2 84/1/5 
f 83/1/2 84/1/5 70/1/2 
f 59/1/6 58/1/5 85/1/6 
f 84/1/5 85/1/6 58/1/5 
f 61/1/25 59/1/6 86/1/25 
f 85/1/6 86/1/25 59/1/6 
f 62/1/18 61/1/25 87/1/18 
f 86/1/25 87/1/18 61/1/25 
f 87/1/18 88/1/4 62/1/18 
f 63/1/4 62/1/18 88/1/4 
f 88/1/4 89/1/3 63/1/4 
f 64/1/3 63/1/4 89/1/3 
f 89/1/3 90/1/24 64/1/3 
f 65/1/24 64/1/3 90/1/24 
f 90/1/24 91/1/20 65/1/24 
f 67/1/20 65/1/24 91/1/20 
f 91/1/20 92/1/19 67/1/20 
f 68/1/19 67/1/20 92/1/19 
f 92/1/19 93/1/21 68/1/19 
f 69/1/21 68/1/19 93/1/21 
f 69/1/21 93/1/21 15/1/8 
f 14/1/8 15/1/8 93/1/21 
f 33/1/17 36/1/17 44/1/16 
f 41/1/16 44/1/16 36/1/17 
f 56/1/21 51/1/19 53/1/21 
f 49/1/19 53/1/21 51/1/19 
f 84/1/26 83/1/26 56/1/26 
f 51/1/26 56/1/26 83/1/26 
f 81/1/26 51/1/26 83/1/26 
f 79/1/26 51/1/26 81/1/26 
f 50/1/26 51/1/26 79/1/26 
f 78/1/26 50/1/26 79/1/26 
f 77/1/26 50/1/26 78/1/26 
f 82/1/26 50/1/26 77/1/26 
f 38/1/26 82/1/26 77/1/26 
f 35/1/26 82/1/26 38/1/26 
f 7/1/26 82/1/26 35/1/26 
f 33/1/26 7/1/26 35/1/26 
f 6/1/26 7/1/26 33/1/26 
f 44/1/26 6/1/26 33/1/26 
f 42/1/26 6/1/26 44/1/26 
f 39/1/26 6/1/26 42/1/26 
f 20/1/26 39/1/26 42/1/26 
f 18/1/26 39/1/26 20/1/26 
f 21/1/26 39/1/26 18/1/26 
f 1/1/26 39/1/26 21/1/26 
f 94/1/26 39/1/26 1/1/26 
f 4/1/26 94/1/26 1/1/26 
f 12/1/26 94/1/26 4/1/26 
f 9/1/26 12/1/26 4/1/26 
f 48/1/26 46/1/26 80/1/26 
f 32/1/26 80/1/26 46/1/26 
f 54/1/26 80/1/26 32/1/26 
f 30/1/26 54/1/26 32/1/26 
f 56/1/26 54/1/26 30/1/26 
f 84/1/26 56/1/26 30/1/26 
f 85/1/26 84/1/26 30/1/26 
f 95/1/26 85/1/26 30/1/26 
f 86/1/26 85/1/26 95/1/26 
f 87/1/26 86/1/26 95/1/26 
f 25/1/26 87/1/26 95/1/26 
f 88/1/26 87/1/26 25/1/26 
f 89/1/26 88/1/26 25/1/26 
f 23/1/26 89/1/26 25/1/26 
f 90/1/26 89/1/26 23/1/26 
f 96/1/26 90/1/26 23/1/26 
f 91/1/26 90/1/26 96/1/26 
f 92/1/26 91/1/26 96/1/26 
f 28/1/26 92/1/26 96/1/26 
f 93/1/26 92/1/26 28/1/26 
f 14/1/26 93/1/26 28/1/26 
f 21/1/26 14/1/26 28/1/26 
f 16/1/26 14/1/26 21/1/26 
f 18/1/26 16/1/26 21/1/26 
f 10/1/6 76/1/25 12/1/6 
f 94/1/25 12/1/6 76/1/25 
f 96/1/23 66/1/23 28/1/14 
f 27/1/14 28/1/14 66/1/23 
f 95/1/17 60/1/17 25/1/13 
f 24/1/13 25/1/13 60/1/17 
f 30/1/16 31/1/16 95/1/17 
f 60/1/17 95/1/17 31/1/16 
f 23/1/12 26/1/12 96/1/23 
f 66/1/23 96/1/23 26/1/12 
f 76/1/25 40/1/18 94/1/25 
f 39/1/18 94/1/25 40/1/18 
# 192 faces

#
# object Group_009
#

v  0.5296 0.2992 -1.3451
v  0.5874 -0.4733 -1.1943
v  0.7065 0.2706 -1.1931
v  0.4105 -0.4447 -1.3463
v  -0.5489 0.4718 -1.2553
v  -0.8182 -0.2484 -1.0773
v  -0.6681 -0.2721 -1.2565
v  -0.6990 0.4955 -1.0761
v  0.7194 -0.4948 -1.0011
v  0.8386 0.2491 -0.9999
v  0.7976 -0.5076 -0.7799
v  0.9167 0.2363 -0.7787
v  0.8166 -0.5111 -0.5457
v  0.9357 0.2329 -0.5445
v  -0.8379 0.5169 -0.5684
v  -0.8986 -0.2394 1.3488
v  -0.9570 -0.2270 -0.5696
v  -0.7795 0.5045 1.3501
v  0.8466 -0.5189 1.3196
v  0.9657 0.2250 1.3208
v  -0.4655 0.4585 -1.3138
v  -0.7983 0.5111 -0.8636
v  -0.8398 0.5173 -0.6324
v  -0.9174 -0.2328 -0.8648
v  -0.5846 -0.2854 -1.3150
v  -0.9589 -0.2266 -0.6336
# 26 vertices

vn 0.6389 -0.1011 -0.7627
vn 0.7317 -0.1161 -0.6717
vn -0.6631 0.1074 -0.7408
vn -0.8298 0.1338 -0.5417
vn 0.8783 -0.1399 -0.4571
vn 0.9652 -0.1542 -0.2113
vn 0.9841 -0.1575 -0.0819
vn -0.9869 0.1580 0.0310
vn 0.9873 -0.1581 -0.0166
vn 0.1581 0.9874 0.0016
vn -0.9401 0.1511 -0.3057
vn -0.5619 0.0913 -0.8221
vn -0.0304 0.0065 -0.9995
vn 0.0161 -0.0042 0.9999
vn -0.9715 0.1559 -0.1788
vn -0.1581 -0.9874 -0.0016
# 16 vertex normals

vt 0.0000 0.0000 0.0000
# 1 texture coords

o Group_009
g Group_009
usemtl NEGRO
s off
f 99/2/28 98/2/28 97/2/27 
f 100/2/27 97/2/27 98/2/28 
f 103/2/29 102/2/30 101/2/29 
f 104/2/30 101/2/29 102/2/30 
f 98/2/28 99/2/28 105/2/31 
f 106/2/31 105/2/31 99/2/28 
f 105/2/31 106/2/31 107/2/32 
f 108/2/32 107/2/32 106/2/31 
f 107/2/32 108/2/32 109/2/33 
f 110/2/33 109/2/33 108/2/32 
f 113/2/34 112/2/34 111/2/34 
f 114/2/34 111/2/34 112/2/34 
f 109/2/35 110/2/35 115/2/35 
f 116/2/35 115/2/35 110/2/35 
f 116/2/36 110/2/36 114/2/36 
f 108/2/36 114/2/36 110/2/36 
f 106/2/36 114/2/36 108/2/36 
f 99/2/36 114/2/36 106/2/36 
f 97/2/36 114/2/36 99/2/36 
f 117/2/36 114/2/36 97/2/36 
f 101/2/36 114/2/36 117/2/36 
f 104/2/36 114/2/36 101/2/36 
f 118/2/36 114/2/36 104/2/36 
f 111/2/36 114/2/36 118/2/36 
f 119/2/36 111/2/36 118/2/36 
f 102/2/30 120/2/37 104/2/30 
f 118/2/37 104/2/30 120/2/37 
f 117/2/38 121/2/38 101/2/29 
f 103/2/29 101/2/29 121/2/38 
f 97/2/39 100/2/39 117/2/39 
f 121/2/39 117/2/39 100/2/39 
f 116/2/40 114/2/40 115/2/40 
f 112/2/40 115/2/40 114/2/40 
f 120/2/37 122/2/41 118/2/37 
f 119/2/41 118/2/37 122/2/41 
f 115/2/42 112/2/42 109/2/42 
f 107/2/42 109/2/42 112/2/42 
f 105/2/42 107/2/42 112/2/42 
f 98/2/42 105/2/42 112/2/42 
f 100/2/42 98/2/42 112/2/42 
f 121/2/42 100/2/42 112/2/42 
f 103/2/42 121/2/42 112/2/42 
f 102/2/42 103/2/42 112/2/42 
f 120/2/42 102/2/42 112/2/42 
f 113/2/42 120/2/42 112/2/42 
f 122/2/42 120/2/42 113/2/42 
f 122/2/34 113/2/34 119/2/34 
f 111/2/34 119/2/34 113/2/34 
# 48 faces

