# 3ds Max Wavefront OBJ Exporter v0.99 - (c)2007 guruware
# File Created: 14.05.2026 14:00:21

mtllib Pared_negra.mtl

#
# object Box003
#

v  0.0000 500.0000 140.0001
v  0.0000 500.0000 -0.0000
v  0.0000 0.0000 -0.0000
v  0.0000 0.0000 140.0001
v  100.0000 0.0000 -0.0000
v  100.0000 500.0000 -0.0000
v  100.0000 500.0000 280.0001
v  100.0000 0.0000 280.0001
v  -3390.2881 0.0000 139.9999
v  -3390.2881 500.0000 139.9999
v  -3390.2881 0.0000 279.9999
v  -3390.2881 500.0000 279.9999
v  -3390.2881 0.0000 280.7000
v  -3390.2881 500.0000 280.7000
v  -3530.2881 0.0000 280.7000
v  -3530.2881 500.0000 280.7000
v  -3530.2876 500.0000 -2129.2998
v  -3530.2876 0.0000 -2129.2998
v  -3397.5977 500.0000 -2129.2998
v  -3397.5977 0.0000 -2129.2998
v  -3390.2876 500.0000 -1992.9277
v  -3390.2876 0.0000 -1992.9277
v  -1559.5975 500.0000 -1992.9277
v  -1559.5975 0.0000 -1992.9277
v  -3397.5977 0.0000 -2132.9277
v  -3397.5977 500.0000 -2132.9277
v  -1559.5975 0.0000 -2132.9277
v  -1559.5975 500.0000 -2132.9277
v  -770.5825 0.0000 -1701.7853
v  -770.5825 0.0000 -1561.7853
v  -770.5825 500.0000 -1561.7853
v  -770.5825 500.0000 -1701.7853
v  100.4176 500.0000 -1561.7850
v  100.4176 500.0000 -1701.7850
v  100.4176 280.0000 -1701.7850
v  100.4176 280.0000 -1561.7850
v  951.1274 280.0000 -1561.7850
v  951.1274 280.0000 -1701.7850
v  951.1274 0.0000 -1701.7850
v  951.1274 0.0000 -1561.7850
# 40 vertices

vn -1.0000 0.0000 -0.0000
vn 0.0000 0.0000 -1.0000
vn 1.0000 0.0000 0.0000
vn -0.0000 0.0000 1.0000
vn 0.0000 -1.0000 -0.0000
vn 0.0000 1.0000 -0.0000
vn -0.0000 -0.0000 1.0000
# 7 vertex normals

vt 4.5155 1.3929 2.8980
vt 3.9882 1.3929 2.8980
vt 3.9882 -0.3929 2.8980
vt 4.5155 -0.3929 2.8980
vt -2.0840 -0.3929 3.9882
vt -1.8980 -0.3929 3.9882
vt -1.8980 1.3929 3.9882
vt -2.0840 1.3929 3.9882
vt -2.9882 -0.3929 3.0840
vt -2.9882 1.3929 3.0840
vt -4.0428 1.3929 3.0840
vt -4.0428 -0.3929 3.0840
vt -1.8980 1.3929 4.5155
vt -1.8980 -0.3929 4.5155
vt 4.4063 -0.3929 4.5155
vt 4.4063 1.3929 4.5155
vt -3.4063 -0.3929 5.0428
vt 3.0840 -0.3929 5.0428
vt 3.0840 1.3929 5.0428
vt -3.4063 1.3929 5.0428
vt -4.0455 -0.3929 -3.4063
vt -4.0428 -0.3929 -3.4063
vt -4.0428 1.3929 -3.4063
vt -4.0455 1.3929 -3.4063
vt 5.0455 -0.3929 -3.6667
vt 5.0455 1.3929 -3.6667
vt -4.0318 1.3929 -3.6667
vt -4.0318 -0.3929 -3.6667
vt -3.4063 1.3929 5.0455
vt -3.6667 1.3929 5.0455
vt -3.6667 -0.3929 5.0455
vt -3.4063 -0.3929 5.0455
vt 4.4199 1.3929 -4.0318
vt 4.4199 -0.3929 -4.0318
vt 4.6667 -0.3929 -4.0318
vt 4.6667 1.3929 -4.0318
vt 4.5181 1.3929 -3.4063
vt -3.5155 1.3929 -3.4063
vt -3.5155 -0.3929 -3.4063
vt 4.5181 -0.3929 -3.4063
vt -0.0021 1.3929 -3.5181
vt -3.4063 1.3929 -3.5181
vt -3.4063 -0.3929 -3.5181
vt -0.0021 -0.3929 -3.5181
vt -4.0455 -0.3929 -3.4199
vt -4.0318 -0.3929 -3.4199
vt -4.0318 1.3929 -3.4199
vt -4.0455 1.3929 -3.4199
vt 1.0021 -0.3929 -4.0454
vt 4.4199 -0.3929 -4.0455
vt 4.4199 1.3929 -4.0455
vt 1.0021 1.3929 -4.0454
vt 4.5181 -0.3929 -0.0021
vt 5.0454 -0.3929 -0.0021
vt 5.0454 1.3929 -0.0021
vt 4.5181 1.3929 -0.0021
vt -3.5155 2.8980 -0.3929
vt -2.9882 2.8980 -0.3929
vt -2.9882 3.0840 -0.3929
vt -4.0428 3.0840 -0.3929
vt -4.0428 -3.4063 -0.3929
vt -3.5155 -3.4063 -0.3929
vt -4.0455 -3.4063 -0.3929
vt -4.0455 -3.6667 -0.3929
vt 5.0318 -3.6667 -0.3929
vt 5.0318 -3.4199 -0.3929
vt 4.5181 -3.4063 -0.3929
vt 5.0455 -3.4199 -0.3929
vt 5.0454 -0.0021 -0.3929
vt 4.5181 -0.0021 -0.3929
vt -3.5181 -3.4063 1.3929
vt -3.5181 -0.0021 1.3929
vt -4.0454 -0.0021 1.3929
vt -4.0455 -3.4199 1.3929
vt -4.0318 -3.4199 1.3929
vt 4.5155 -3.4063 1.3929
vt -4.0318 -3.6667 1.3929
vt 5.0455 -3.6667 1.3929
vt 5.0455 -3.4063 1.3929
vt 5.0428 -3.4063 1.3929
vt 4.5155 2.8980 1.3929
vt 5.0428 3.0840 1.3929
vt 3.9882 3.0840 1.3929
vt 3.9882 2.8980 1.3929
vt -1.4579 -0.3929 1.4651
vt -0.9306 -0.3929 1.4651
vt -0.9306 1.3929 1.4651
vt -1.4579 1.3929 1.4651
vt -1.4579 1.4651 1.3929
vt -0.9306 1.4651 1.3929
vt -0.9306 3.0847 1.3929
vt -1.4579 3.0847 1.3929
vt 2.4579 0.6071 3.0847
vt 2.4579 1.3929 3.0847
vt 1.9306 1.3929 3.0847
vt 1.9306 0.6071 3.0847
vt -0.9306 4.6667 0.6071
vt -1.4579 4.6667 0.6071
vt -1.4579 3.0847 0.6071
vt -0.9306 3.0847 0.6071
vt 2.4579 4.6667 -0.3929
vt 1.9306 4.6667 -0.3929
vt 1.9306 1.4651 -0.3929
vt 2.4579 1.4651 -0.3929
vt 1.9306 -0.3929 4.6667
vt 2.4579 -0.3929 4.6667
vt 2.4579 0.6071 4.6667
vt 1.9306 0.6071 4.6667
vt 3.0847 0.6071 -0.9306
vt 3.0847 1.3929 -0.9306
vt 1.4651 1.3929 -0.9306
vt 1.4651 -0.3929 -0.9306
vt 4.6667 -0.3929 -0.9306
vt 4.6667 0.6071 -0.9306
vt -0.4651 1.3929 -1.4579
vt -2.0847 1.3929 -1.4579
vt -2.0847 0.6071 -1.4579
vt -0.4651 -0.3929 -1.4579
vt -3.6667 -0.3929 -1.4579
vt -3.6667 0.6071 -1.4579
# 120 texture coords

o Box003
g Box003
usemtl 02___Default
s 1
f 1/1/1 2/2/1 3/3/1 
f 3/3/1 4/4/1 1/1/1 
s 8
f 5/5/2 3/6/2 2/7/2 
f 2/7/2 6/8/2 5/5/2 
s 1
f 5/9/3 6/10/3 7/11/3 
f 7/11/3 8/12/3 5/9/3 
s 64
f 1/13/2 4/14/2 9/15/2 
f 9/15/2 10/16/2 1/13/2 
s 16
f 11/17/4 8/18/4 7/19/4 
f 7/19/4 12/20/4 11/17/4 
s 1
f 13/21/3 11/22/3 12/23/3 
f 12/23/3 14/24/3 13/21/3 
f 15/25/1 16/26/1 17/27/1 
f 17/27/1 18/28/1 15/25/1 
s 8
f 14/29/4 16/30/4 15/31/4 
f 15/31/4 13/32/4 14/29/4 
s 16
f 19/33/2 20/34/2 18/35/2 
f 18/35/2 17/36/2 19/33/2 
s 1
f 21/37/3 10/38/3 9/39/3 
f 9/39/3 22/40/3 21/37/3 
s 8
f 23/41/4 21/42/4 22/43/4 
f 22/43/4 24/44/4 23/41/4 
s 1
f 25/45/1 20/46/1 19/47/1 
f 19/47/1 26/48/1 25/45/1 
s 8
f 27/49/2 25/50/2 26/51/2 
f 26/51/2 28/52/2 27/49/2 
s 1
f 24/53/3 27/54/3 28/55/3 
f 28/55/3 23/56/3 24/53/3 
s 2
f 4/57/5 3/58/5 5/59/5 
f 4/57/5 5/59/5 8/60/5 
f 4/57/5 8/60/5 11/61/5 
f 9/62/5 4/57/5 11/61/5 
f 13/63/5 15/64/5 18/65/5 
f 11/61/5 13/63/5 18/65/5 
f 11/61/5 18/65/5 20/66/5 
f 9/62/5 11/61/5 20/66/5 
f 22/67/5 9/62/5 20/66/5 
f 20/66/5 25/68/5 27/69/5 
f 22/67/5 20/66/5 27/69/5 
f 22/67/5 27/69/5 24/70/5 
s 4
f 21/71/6 23/72/6 28/73/6 
f 28/73/6 26/74/6 19/75/6 
f 21/71/6 28/73/6 19/75/6 
f 10/76/6 21/71/6 19/75/6 
f 17/77/6 16/78/6 14/79/6 
f 17/77/6 14/79/6 12/80/6 
f 19/75/6 17/77/6 12/80/6 
f 10/76/6 19/75/6 12/80/6 
f 1/81/6 10/76/6 12/80/6 
f 1/81/6 12/80/6 7/82/6 
f 1/81/6 7/82/6 6/83/6 
f 1/81/6 6/83/6 2/84/6 
s 1
f 29/85/1 30/86/1 31/87/1 
f 31/87/1 32/88/1 29/85/1 
s 4
f 32/89/6 31/90/6 33/91/6 
f 33/91/6 34/92/6 32/89/6 
s 1
f 35/93/3 34/94/3 33/95/3 
f 33/95/3 36/96/3 35/93/3 
s 4
f 37/97/6 38/98/6 35/99/6 
f 35/99/6 36/100/6 37/97/6 
s 2
f 39/101/5 40/102/5 30/103/5 
f 30/103/5 29/104/5 39/101/5 
s 1
f 40/105/3 39/106/3 38/107/3 
f 38/107/3 37/108/3 40/105/3 
s 8
f 36/109/7 33/110/4 31/111/4 
f 36/109/7 31/111/4 30/112/7 
f 36/109/7 30/112/7 40/113/7 
f 36/109/7 40/113/7 37/114/4 
f 32/115/2 34/116/2 35/117/2 
f 29/118/2 32/115/2 35/117/2 
f 39/119/2 29/118/2 35/117/2 
f 39/119/2 35/117/2 38/120/2 
# 72 faces

